# xmcd
#
# Track frame offsets: 
#        150
#        18345
#        39525
#        63155
#        80990
#        98672
#        113447
#        135687
#        153022
#        178395
#        206647
#        232302
#        262825
#        286517
#
# Disc length: 4046 seconds
#
# Revision: 30
# Processed by: cddbd v1.5.2PL0 Copyright (c) Steve Scherf et al.
# Submitted via: ExactAudioCopyFreeDBPlugin 1.0
#
DISCID=b70fcc0e
DTITLE=Elton John - The Very Best Of Elton John
DYEAR=1990
DGENRE=Pop
TTITLE0=Your Song
TTITLE1=Rocket Man (I Think It's Going To Be A Long, Long Time)
TTITLE2=Honky Cat
TTITLE3=Crocodile Rock
TTITLE4=Daniel
TTITLE5=Goodbye Yellow Brick Road
TTITLE6=Saturday Night's Alright For Fighting
TTITLE7=Candle In The Wind
TTITLE8=Don't Let The Sun Go Down On Me
TTITLE9=Lucy In The Sky With Diamonds
TTITLE10=Philapelphia Freedom
TTITLE11=Someone Saved My Life
TTITLE12=Pinball Wizard
TTITLE13=The Bitch Is Back
EXTD=YEAR: 1990
EXTT0=
EXTT1=
EXTT2=
EXTT3=
EXTT4=
EXTT5=
EXTT6=
EXTT7=
EXTT8=
EXTT9=
EXTT10=
EXTT11=
EXTT12=
EXTT13=
PLAYORDER=
